<?xml version="1.0" encoding="UTF-8" standalone="no"?>
<!DOCTYPE svg PUBLIC "-//W3C//DTD SVG 1.1//EN" "http://www.w3.org/Graphics/SVG/1.1/DTD/svg11.dtd">
<svg xmlns="http://www.w3.org/2000/svg" version="1.1" viewBox="0.00 0.00 122.00 99.00">
  <path fill="#ff00aa" d="
  M 49.31 99.00
  L 18.60 99.00
  Q 9.88 83.99 1.28 68.84
  Q 0.24 67.00 0.24 64.90
  Q 0.25 44.58 0.25 24.22
  A 0.72 0.72 0.0 0 1 0.97 23.50
  L 4.01 23.50
  Q 4.77 23.50 4.77 22.74
  L 4.71 12.61
  Q 4.71 11.99 5.33 11.99
  L 8.33 12.02
  A 0.92 0.91 0.0 0 0 9.25 11.11
  L 9.25 6.97
  Q 9.25 6.20 10.03 6.22
  L 12.73 6.32
  A 0.98 0.98 0.0 0 0 13.75 5.34
  L 13.75 1.25
  Q 13.75 0.50 14.50 0.50
  L 44.76 0.50
  A 0.75 0.74 73.8 0 1 45.39 0.85
  L 58.21 20.93
  Q 58.50 21.39 58.50 21.92
  L 58.50 41.00
  Q 58.50 41.50 58.00 41.50
  L 41.51 41.50
  A 0.95 0.95 0.0 0 1 40.71 41.06
  L 33.73 30.31
  A 1.21 1.21 0.0 0 0 31.50 30.97
  L 31.50 35.25
  Q 31.50 35.75 31.00 35.75
  L 27.50 35.75
  A 0.50 0.50 0.0 0 0 27.00 36.25
  L 27.00 40.87
  A 0.63 0.63 0.0 0 1 26.37 41.50
  L 23.00 41.50
  Q 22.50 41.50 22.50 42.00
  L 22.50 58.18
  Q 22.50 58.69 22.78 59.13
  L 29.46 69.41
  A 1.11 1.10 28.7 0 0 31.49 68.82
  L 31.51 64.35
  A 0.66 0.65 1.7 0 1 32.21 63.70
  L 35.51 63.89
  Q 36.00 63.91 36.00 63.43
  L 36.00 58.75
  Q 36.00 58.00 36.75 58.00
  L 53.70 58.00
  Q 54.18 58.00 54.39 58.44
  C 56.08 62.10 58.51 65.90 58.51 70.00
  Q 58.51 78.51 58.50 87.00
  Q 58.50 87.50 57.99 87.50
  L 54.50 87.50
  A 0.50 0.50 0.0 0 0 54.00 88.00
  L 54.00 92.62
  Q 54.00 93.25 53.37 93.25
  L 50.02 93.25
  A 0.52 0.52 0.0 0 0 49.50 93.75
  L 49.31 99.00
  Z
  M 23.37 74.00
  A 0.62 0.62 0.0 0 1 22.75 73.38
  L 22.75 69.13
  A 0.62 0.62 0.0 0 0 22.13 68.51
  L 18.87 68.48
  A 0.62 0.62 0.0 0 1 18.26 67.87
  L 18.24 63.12
  A 0.62 0.62 0.0 0 0 17.62 62.50
  L 14.37 62.50
  A 0.62 0.62 0.0 0 1 13.75 61.88
  L 13.75 28.62
  A 0.62 0.62 0.0 0 1 14.37 28.00
  L 17.63 28.00
  A 0.62 0.62 0.0 0 0 18.25 27.38
  L 18.25 22.82
  A 0.62 0.62 0.0 0 1 18.91 22.20
  L 22.08 22.38
  A 0.62 0.62 0.0 0 0 22.73 21.77
  L 22.77 17.37
  A 0.62 0.62 0.0 0 1 23.39 16.75
  L 35.63 16.75
  A 0.62 0.62 0.0 0 1 36.25 17.37
  L 36.25 21.70
  A 0.62 0.62 0.0 0 0 36.89 22.32
  L 39.85 22.23
  A 0.62 0.62 0.0 0 1 40.49 22.85
  L 40.51 27.38
  A 0.62 0.62 0.0 0 0 41.13 28.00
  L 48.92 28.00
  A 0.62 0.62 0.0 0 0 49.54 27.38
  L 49.53 17.21
  A 0.62 0.62 0.0 0 0 48.87 16.59
  L 45.67 16.82
  A 0.62 0.62 0.0 0 1 45.00 16.20
  L 45.00 11.37
  A 0.62 0.62 0.0 0 0 44.38 10.75
  L 41.17 10.75
  A 0.62 0.62 0.0 0 1 40.55 10.11
  L 40.70 5.64
  A 0.62 0.62 0.0 0 0 40.08 5.00
  L 18.87 5.00
  A 0.62 0.62 0.0 0 0 18.25 5.62
  L 18.25 10.13
  A 0.62 0.62 0.0 0 1 17.63 10.75
  L 14.37 10.75
  A 0.62 0.62 0.0 0 0 13.75 11.37
  L 13.75 16.13
  A 0.62 0.62 0.0 0 1 13.13 16.75
  L 9.87 16.75
  A 0.62 0.62 0.0 0 0 9.25 17.37
  L 9.25 27.37
  A 0.62 0.62 0.0 0 1 8.63 27.99
  L 5.37 28.02
  A 0.62 0.62 0.0 0 0 4.75 28.64
  L 4.75 62.00
  A 0.62 0.62 0.0 0 0 5.40 62.62
  L 8.60 62.45
  A 0.62 0.62 0.0 0 1 9.25 63.07
  L 9.25 73.38
  A 0.62 0.62 0.0 0 0 9.87 74.00
  L 13.13 74.00
  A 0.62 0.62 0.0 0 1 13.75 74.62
  L 13.75 79.38
  A 0.62 0.62 0.0 0 0 14.37 80.00
  L 17.63 80.00
  A 0.62 0.62 0.0 0 1 18.25 80.62
  L 18.25 85.13
  A 0.62 0.62 0.0 0 0 18.87 85.75
  L 39.98 85.75
  A 0.62 0.62 0.0 0 0 40.60 85.11
  L 40.46 80.64
  A 0.62 0.62 0.0 0 1 41.08 80.00
  L 44.37 80.00
  A 0.62 0.62 0.0 0 0 44.99 79.38
  L 45.01 74.62
  A 0.62 0.62 0.0 0 1 45.63 74.00
  L 48.87 74.00
  A 0.62 0.62 0.0 0 0 49.49 73.40
  L 49.74 63.14
  A 0.62 0.62 0.0 0 0 49.12 62.50
  L 41.12 62.50
  A 0.62 0.62 0.0 0 0 40.50 63.12
  L 40.50 67.94
  A 0.62 0.62 0.0 0 1 39.83 68.56
  L 36.92 68.32
  A 0.62 0.62 0.0 0 0 36.25 68.94
  L 36.25 73.38
  A 0.62 0.62 0.0 0 1 35.63 74.00
  L 23.37 74.00
  Z" />
  <path fill="#a7ff04" d="
  M 121.23 99.00
  L 103.71 99.00
  C 101.90 95.86 98.73 91.52 98.76 87.82
  Q 98.81 79.32 98.72 70.73
  A 0.49 0.49 0.0 0 0 98.23 70.25
  L 85.77 70.25
  Q 85.28 70.25 85.28 70.74
  L 85.26 99.00
  L 67.91 99.00
  C 66.10 95.86 63.01 91.72 63.00 88.00
  Q 63.00 44.77 63.00 1.24
  A 0.74 0.74 0.0 0 1 63.74 0.50
  L 80.59 0.50
  A 0.89 0.87 75.9 0 1 81.37 0.98
  L 89.51 17.28
  Q 89.75 17.75 90.28 17.75
  L 93.55 17.75
  Q 94.29 17.75 94.29 17.01
  L 94.23 7.05
  Q 94.23 6.26 95.01 6.26
  L 97.84 6.26
  Q 98.75 6.26 98.75 5.35
  L 98.75 1.13
  Q 98.75 0.50 99.38 0.50
  L 116.26 0.50
  Q 116.85 0.50 117.12 1.03
  C 119.07 4.87 121.26 8.57 121.26 13.02
  Q 121.26 56.01 121.23 99.00
  Z
  M 99.00 34.60
  A 0.60 0.60 0.0 0 1 99.60 34.00
  L 102.60 34.00
  A 0.60 0.60 0.0 0 1 103.20 34.60
  L 103.36 85.15
  A 0.60 0.60 0.0 0 0 103.96 85.75
  L 111.60 85.74
  A 0.60 0.60 0.0 0 0 112.20 85.14
  L 112.39 5.60
  A 0.60 0.60 0.0 0 0 111.79 5.00
  L 103.82 5.00
  A 0.60 0.60 0.0 0 0 103.22 5.61
  L 103.33 10.14
  A 0.60 0.60 0.0 0 1 102.73 10.75
  L 99.60 10.75
  A 0.60 0.60 0.0 0 0 99.00 11.35
  L 99.00 21.67
  A 0.60 0.60 0.0 0 1 98.39 22.27
  L 95.11 22.25
  A 0.60 0.60 0.0 0 0 94.50 22.85
  L 94.50 33.39
  A 0.60 0.60 0.0 0 1 93.90 33.99
  L 86.10 34.00
  A 0.60 0.60 0.0 0 1 85.50 33.40
  L 85.50 22.87
  A 0.60 0.60 0.0 0 0 84.90 22.27
  L 81.60 22.24
  A 0.60 0.60 0.0 0 1 81.00 21.64
  L 81.00 11.35
  A 0.60 0.60 0.0 0 0 80.40 10.75
  L 77.08 10.75
  A 0.60 0.60 0.0 0 1 76.48 10.14
  L 76.55 5.61
  A 0.60 0.60 0.0 0 0 75.95 5.00
  L 68.10 5.00
  A 0.60 0.60 0.0 0 0 67.50 5.60
  L 67.50 85.15
  A 0.60 0.60 0.0 0 0 68.10 85.75
  L 75.90 85.74
  A 0.60 0.60 0.0 0 0 76.50 85.14
  L 76.50 34.60
  A 0.60 0.60 0.0 0 1 77.10 34.00
  L 80.40 34.00
  A 0.60 0.60 0.0 0 1 81.00 34.60
  L 81.00 44.71
  A 0.60 0.60 0.0 0 0 81.61 45.31
  L 84.89 45.25
  A 0.60 0.60 0.0 0 1 85.50 45.85
  L 85.50 56.15
  A 0.60 0.60 0.0 0 0 86.10 56.75
  L 93.90 56.75
  A 0.60 0.60 0.0 0 0 94.50 56.15
  L 94.50 45.83
  A 0.60 0.60 0.0 0 1 95.12 45.23
  L 98.38 45.33
  A 0.60 0.60 0.0 0 0 99.00 44.73
  L 99.00 34.60
  Z" />
</svg>